<?xml version="1.0" encoding="utf-8"?>
<!-- Generator: Adobe Illustrator 24.0.0, SVG Export Plug-In . SVG Version: 6.00 Build 0)  -->
<svg version="1.1" id="Capa_1" xmlns="http://www.w3.org/2000/svg" xmlns:xlink="http://www.w3.org/1999/xlink" x="0px" y="0px"
	 viewBox="0 0 1200 1200" style="enable-background:new 0 0 1200 1200;" xml:space="preserve">
<style type="text/css">
	.st0{fill:#F2F2F2;}
</style>
<path class="st0" d="M658.81,518.47c-1.94-0.52-3.88-1.03-5.82-1.55c0-23.57-0.71-47.16,0.25-70.69
	c0.64-15.74-4.75-21.63-20.92-21.41c-54.09,0.73-108.21,0.76-162.3-0.03c-16.37-0.24-20.85,5.96-20.83,21.48
	c0.35,217.05,0.4,434.1-0.06,651.14c-0.04,17.15,5.81,22.24,22.44,21.99c54.09-0.81,108.2-0.26,162.3-0.33
	c27.28-0.04,27.04-0.13,27.4-28.27c1.53-119.74-3.18-239.51,2.86-359.23c3.77-74.79,37.53-122.31,99.88-132.51
	c74.03-12.1,124.53,13.49,138.34,96.18c2.45,14.69,3.67,29.33,3.67,44.18c0.04,119.07,0.53,238.15-0.14,357.21
	c-0.1,18.38,6.25,23.01,23.44,22.75c55.38-0.83,110.79-1.03,166.15,0.08c19.15,0.38,25.63-4.9,25.48-24.87
	c-0.86-119.79-0.67-239.59-0.3-359.38c0.14-47.13-2.49-93.99-12.19-140.11c-15.94-75.75-51.23-137.38-127.62-167.1
	c-41.51-16.15-84.85-20.1-129.04-18.65c-69.45,2.28-127.1,29.2-172.65,81.64C671.7,499.59,665.56,509.29,658.81,518.47z
	 M309.41,773.95c0-108.82-0.25-217.65,0.27-326.47c0.08-16.28-4.24-22.98-21.72-22.7c-56.01,0.9-112.04,0.79-168.06,0.04
	c-16.31-0.22-22.76,4.23-22.73,21.69c0.47,217,0.47,434.01,0.01,651.01c-0.04,17.36,6.33,22.06,22.69,21.84
	c54.72-0.73,109.46-0.22,164.2-0.3c25.18-0.04,25.29-0.16,25.3-26.37C309.42,986.44,309.39,880.19,309.41,773.95z M202.85,327
	c69.37,0.16,124.65-54,125.03-122.51c0.37-68.25-55.06-123.81-123.7-123.98c-68.67-0.18-124.56,54.57-125.14,122.58
	C78.46,270.94,134.31,326.84,202.85,327z"/>
</svg>
