<?xml version="1.0" encoding="utf-8"?>
<!-- Generator: Adobe Illustrator 24.0.0, SVG Export Plug-In . SVG Version: 6.00 Build 0)  -->
<svg version="1.1" id="Capa_1" xmlns="http://www.w3.org/2000/svg" xmlns:xlink="http://www.w3.org/1999/xlink" x="0px" y="0px"
	 viewBox="0 0 800 600" style="enable-background:new 0 0 800 600;" xml:space="preserve">
<style type="text/css">
	.st0{fill:#F2F2F2;}
	.st1{fill:#A6192E;}
	.st2{fill:none;stroke:#A6192E;stroke-miterlimit:10;}
	.st3{fill:#323031;}
	.st4{fill:none;stroke:#AAAAAA;stroke-width:0.25;stroke-miterlimit:10;}
	.st5{fill:#FFFFFF;}
	.st6{fill:none;stroke:#FFFFFF;stroke-miterlimit:10;}
	.st7{fill:#F8F8F8;}
	.st8{fill:none;stroke:#898989;stroke-width:0.75;stroke-miterlimit:10;}
	.st9{fill:#898989;}
	.st10{fill:#E52A21;}
	.st11{fill:#D4A6B8;}
	.st12{fill:#FEFEFE;}
	.st13{fill:#BB0013;}
	.st14{fill:#FFBB00;}
	.st15{fill:#43499B;}
	.st16{fill:none;stroke:#A6192E;stroke-width:4;stroke-linecap:round;stroke-miterlimit:10;}
	.st17{fill:#051C2C;}
	.st18{fill:#4C4C4C;}
	.st19{fill:url(#SVGID_1_);}
	.st20{fill:url(#SVGID_2_);}
	.st21{fill:url(#SVGID_3_);}
	.st22{fill:url(#SVGID_4_);}
	.st23{fill:url(#SVGID_5_);}
	.st24{fill:url(#SVGID_6_);}
	.st25{fill:#0C3B4F;}
	.st26{fill:#2391C1;}
	.st27{fill:#0E4868;}
	.st28{fill:#EAF7F9;}
	.st29{fill:#002822;}
	.st30{fill:#45391D;}
	.st31{fill:#FD9C28;}
	.st32{fill:#E65924;}
	.st33{fill:#D8A982;}
	.st34{fill:#F5C99D;}
	.st35{fill:#97F9E3;}
	.st36{fill:#66AA98;}
	.st37{fill:#070707;}
	.st38{fill:#847D3D;}
	.st39{fill:#2F2C2E;}
	.st40{fill:#861418;}
	.st41{fill:#BDC5C2;}
	.st42{fill:none;stroke:#A6192E;stroke-width:6;stroke-linecap:round;stroke-miterlimit:10;}
	.st43{fill:#A3E1E4;}
	.st44{fill:#F7EA60;}
	.st45{fill:#545759;}
	.st46{fill:#39C5DA;}
	.st47{fill:#A76419;}
	.st48{fill:#4C0C18;}
	.st49{fill:url(#SVGID_7_);}
	.st50{fill:#BDD0FB;}
	.st51{fill:url(#SVGID_8_);}
	.st52{fill:#91B3FA;}
	.st53{fill:url(#SVGID_9_);}
	.st54{fill:url(#SVGID_10_);}
	.st55{fill:#7D97F4;}
	.st56{opacity:0.53;fill:#FFFFFF;}
	.st57{fill:url(#SVGID_11_);}
	.st58{fill:url(#SVGID_12_);}
	.st59{fill:url(#SVGID_13_);}
	.st60{fill:url(#SVGID_14_);}
	.st61{fill:url(#SVGID_15_);}
	.st62{fill:url(#SVGID_16_);}
	.st63{fill:url(#SVGID_17_);}
	.st64{fill:url(#SVGID_18_);}
	.st65{fill:url(#SVGID_19_);}
	.st66{fill:url(#SVGID_20_);}
	.st67{fill:url(#SVGID_21_);}
	.st68{fill:url(#SVGID_22_);}
	.st69{fill:url(#SVGID_23_);}
	.st70{fill:url(#SVGID_24_);}
	.st71{fill:url(#SVGID_25_);}
	.st72{opacity:0.3;}
	.st73{fill:url(#SVGID_26_);}
	.st74{fill:url(#SVGID_27_);}
	.st75{fill:url(#SVGID_28_);}
	.st76{fill:url(#SVGID_29_);}
	.st77{fill:url(#SVGID_30_);}
	.st78{fill:url(#SVGID_31_);}
	.st79{opacity:0.7;fill:#FFFFFF;}
	.st80{fill:url(#SVGID_32_);}
	.st81{fill:url(#SVGID_33_);}
	.st82{fill:url(#SVGID_34_);}
	.st83{fill:url(#SVGID_35_);}
	.st84{fill:url(#SVGID_36_);}
	.st85{fill:url(#SVGID_37_);}
	.st86{fill:url(#SVGID_38_);}
	.st87{fill:url(#SVGID_39_);}
	.st88{fill:url(#SVGID_40_);}
	.st89{fill:url(#SVGID_41_);}
	.st90{fill:url(#SVGID_42_);}
	.st91{fill:url(#SVGID_43_);}
	.st92{fill:url(#SVGID_44_);}
	.st93{fill:url(#SVGID_45_);}
	.st94{fill:url(#SVGID_46_);}
	.st95{fill:url(#SVGID_47_);}
	.st96{fill:url(#SVGID_48_);}
	.st97{fill:url(#SVGID_49_);}
	.st98{fill:url(#SVGID_50_);}
	.st99{fill:url(#SVGID_51_);}
	.st100{fill:url(#SVGID_52_);}
	.st101{fill:url(#SVGID_53_);}
	.st102{fill:url(#SVGID_54_);}
	.st103{fill:url(#SVGID_55_);}
	.st104{fill:url(#SVGID_56_);}
	.st105{fill:#CD001A;}
	.st106{fill:#101820;}
	.st107{fill:none;stroke:#FFFFFF;stroke-width:2;stroke-miterlimit:10;}
	.st108{fill:#FFFFFF;stroke:#A6192E;stroke-width:4;stroke-miterlimit:10;}
	.st109{fill:#25D366;}
	.st110{fill:none;stroke:#A6192E;stroke-width:4;stroke-miterlimit:10;}
	.st111{fill:none;stroke:#A6192E;stroke-width:3;stroke-linecap:round;stroke-miterlimit:10;}
	.st112{fill:none;}
</style>
<g>
	<path class="st1" d="M239.89,234.75c0,3.21-2.62,5.83-5.81,5.83c-17,0-32.32-7.28-43.01-18.87c-4.71-5.06-8.52-10.97-11.19-17.44
		c-2.84-6.88-4.41-14.4-4.41-22.3c0-19.84,9.89-37.41,25.05-48.02c4.76-3.31,10.02-5.98,15.68-7.78c5.63-1.84,11.66-2.82,17.89-2.82
		c3.19,0,5.81,2.62,5.81,5.83c0,3.21-2.62,5.81-5.81,5.81c-4.04,0-7.98,0.52-11.74,1.5c-5.78,1.5-11.17,4.06-15.85,7.5
		c-11.76,8.55-19.39,22.38-19.39,37.98c0,8.05,2.04,15.65,5.63,22.3c3.84,7.1,9.47,13.08,16.27,17.4h0.02
		c7.25,4.61,15.85,7.28,25.05,7.28C237.27,228.94,239.89,231.56,239.89,234.75z"/>
	<path class="st1" d="M250.73,181.97c0,0.42-0.02,0.87-0.05,1.3c-0.57,8.95-7.2,16.25-15.85,17.84c-1.15,0.22-2.32,0.32-3.54,0.32
		c-10.74,0-19.44-8.72-19.44-19.46c0-6.43,3.12-12.14,7.92-15.68c3.24-2.37,7.2-3.76,11.51-3.76c2.62,0,5.11,0.52,7.38,1.45
		C245.74,166.86,250.73,173.84,250.73,181.97z"/>
	<path class="st1" d="M325.02,189.32l-6.2-2.07v-5.33c0-0.1-0.03-0.17-0.03-0.25c0-0.1,0.03-0.17,0.03-0.27v-5.33l6.2-2.07
		c9.32-3.12,14.43-12.93,11.59-22.33l-3.91-13.06c-2.82-9.37-12.41-14.75-21.91-12.29l-7.4,1.97l-5.78-7.7l4.26-5.66
		c2.92-3.89,4.14-8.7,3.41-13.51c-0.72-4.81-3.29-9.05-7.23-11.91l-11.21-8.2c-7.93-5.81-19.21-4.14-25.1,3.74l-4.54,6.06
		l-9.94-3.31v-8.6c0-9.97-8.1-18.07-18.07-18.07h-13.63c-9.97,0-18.07,8.1-18.07,18.07v8.6l-3.49,1.17l-6.45,2.14l-4.54-6.06
		c-3.84-5.11-9.94-7.63-15.92-7.15c-3.21,0.25-6.43,1.37-9.2,3.41l-11.21,8.2c-3.91,2.87-6.48,7.1-7.2,11.91
		c-0.72,4.81,0.5,9.62,3.41,13.51l4.26,5.66l-5.78,7.7l-7.4-1.94c-9.5-2.52-19.09,2.89-21.91,12.26l-3.91,13.06
		c-2.84,9.4,2.27,19.21,11.59,22.33l6.2,2.07v5.33c0,0.1,0.03,0.17,0.03,0.27c0,0.07-0.03,0.15-0.03,0.25v5.33l-6.2,2.07
		c-6.88,2.32-11.46,8.25-12.24,15c-0.3,2.39-0.1,4.86,0.65,7.33l3.04,10.12l0.87,2.94c2.82,9.37,12.44,14.75,21.91,12.29l7.4-1.97
		l5.78,7.7l-4.26,5.66c-2.92,3.89-4.14,8.7-3.41,13.51c0.72,4.81,3.29,9.05,7.2,11.91l11.21,8.2c7.95,5.81,19.21,4.14,25.12-3.74
		l4.54-6.06l9.94,3.31v8.6c0,9.97,8.1,18.07,18.07,18.07h13.63c9.97,0,18.07-8.1,18.07-18.07v-8.6l9.94-3.31l4.54,6.06
		c5.91,7.88,17.17,9.54,25.1,3.74l11.24-8.2c3.91-2.87,6.48-7.1,7.2-11.91c0.72-4.81-0.5-9.62-3.41-13.51l-4.26-5.66l5.78-7.7
		l7.4,1.97c9.47,2.47,19.09-2.92,21.91-12.29l3.91-13.06C339.45,202.23,334.34,192.43,325.02,189.32z M325.47,208.31l-3.91,13.06
		c-1,3.34-4.41,5.26-7.8,4.36l-14.98-3.94l-15.7,20.93l9.47,12.63c1.05,1.4,1.47,3.09,1.22,4.81s-1.17,3.21-2.57,4.24l-11.21,8.2
		c-2.82,2.07-6.85,1.47-8.95-1.32l-9.57-12.76l-25.82,8.62v16.97c0,3.54-2.89,6.43-6.45,6.43h-13.63c-3.56,0-6.45-2.89-6.45-6.43
		v-16.97l-25.84-8.62l-9.55,12.76c-2.09,2.79-6.1,3.39-8.95,1.32l-11.21-8.2c-1.4-1.02-2.32-2.52-2.57-4.24
		c-0.25-1.72,0.18-3.41,1.22-4.81l9.47-12.63l-15.7-20.93l-14.98,3.94c-3.21,0.85-6.5-0.87-7.65-3.96c-0.07-0.12-0.1-0.25-0.15-0.4
		l-3.91-13.06c-0.42-1.35-0.37-2.74,0.07-3.99c0.62-1.82,2.07-3.31,4.06-3.96l14.16-4.71v-13.73c0-0.1-0.02-0.17-0.02-0.25
		c0-0.1,0.02-0.17,0.02-0.27v-13.71l-14.18-4.74c-3.31-1.12-5.13-4.61-4.11-7.95l3.91-13.03c1-3.36,4.44-5.28,7.8-4.39l14.98,3.94
		l15.7-20.93l-9.47-12.63c-1.05-1.4-1.47-3.09-1.22-4.81c0.25-1.72,1.17-3.21,2.57-4.24l11.21-8.2c2.84-2.07,6.83-1.47,8.95,1.32
		l8.92,11.91l0.62,0.85l16.82-5.61l9.02-3.02V79.19c0-3.54,2.89-6.43,6.45-6.43h13.63c3.56,0,6.45,2.89,6.45,6.43v16.97l25.82,8.62
		l9.57-12.76c2.09-2.79,6.11-3.39,8.95-1.32l11.21,8.2c1.4,1.02,2.32,2.52,2.57,4.24s-0.17,3.41-1.22,4.81l-9.47,12.63l15.7,20.93
		l14.98-3.94c3.39-0.9,6.8,1.05,7.8,4.36l3.91,13.06c1.02,3.34-0.8,6.83-4.14,7.95l-14.15,4.74v13.71c0,0.1,0.02,0.17,0.02,0.27
		c0,0.07-0.02,0.15-0.02,0.25v13.73l14.15,4.71C324.67,201.45,326.49,204.97,325.47,208.31z"/>
	<path class="st1" d="M325.02,189.32l-6.2-2.07v-5.33c0-0.1-0.03-0.17-0.03-0.25c0-0.1,0.03-0.17,0.03-0.27v-5.33l6.2-2.07
		c9.32-3.12,14.43-12.93,11.59-22.33l-3.91-13.06c-2.82-9.37-12.41-14.75-21.91-12.29l-7.4,1.97l-5.78-7.7l4.26-5.66
		c2.92-3.89,4.14-8.7,3.41-13.51c-0.72-4.81-3.29-9.05-7.23-11.91l-11.21-8.2c-7.93-5.81-19.21-4.14-25.1,3.74l-4.54,6.06
		l-9.94-3.31v-8.6c0-9.97-8.1-18.07-18.07-18.07h-13.63c-9.97,0-18.07,8.1-18.07,18.07v8.6l-3.49,1.17l-6.45,2.14l-4.54-6.06
		c-3.84-5.11-9.94-7.63-15.92-7.15c-3.21,0.25-6.43,1.37-9.2,3.41l-11.21,8.2c-3.91,2.87-6.48,7.1-7.2,11.91
		c-0.72,4.81,0.5,9.62,3.41,13.51l4.26,5.66l-5.78,7.7l-7.4-1.94c-9.5-2.52-19.09,2.89-21.91,12.26l-3.91,13.06
		c-2.84,9.4,2.27,19.21,11.59,22.33l6.2,2.07v5.33c0,0.1,0.03,0.17,0.03,0.27c0,0.07-0.03,0.15-0.03,0.25v5.33l-6.2,2.07
		c-6.88,2.32-11.46,8.25-12.24,15c-0.3,2.39-0.1,4.86,0.65,7.33l3.04,10.12l0.87,2.94c2.82,9.37,12.44,14.75,21.91,12.29l7.4-1.97
		l5.78,7.7l-4.26,5.66c-2.92,3.89-4.14,8.7-3.41,13.51c0.72,4.81,3.29,9.05,7.2,11.91l11.21,8.2c7.95,5.81,19.21,4.14,25.12-3.74
		l4.54-6.06l9.94,3.31v8.6c0,9.97,8.1,18.07,18.07,18.07h13.63c9.97,0,18.07-8.1,18.07-18.07v-8.6l9.94-3.31l4.54,6.06
		c5.91,7.88,17.17,9.54,25.1,3.74l11.24-8.2c3.91-2.87,6.48-7.1,7.2-11.91c0.72-4.81-0.5-9.62-3.41-13.51l-4.26-5.66l5.78-7.7
		l7.4,1.97c9.47,2.47,19.09-2.92,21.91-12.29l3.91-13.06C339.45,202.23,334.34,192.43,325.02,189.32z M325.47,208.31l-3.91,13.06
		c-1,3.34-4.41,5.26-7.8,4.36l-14.98-3.94l-15.7,20.93l9.47,12.63c1.05,1.4,1.47,3.09,1.22,4.81s-1.17,3.21-2.57,4.24l-11.21,8.2
		c-2.82,2.07-6.85,1.47-8.95-1.32l-9.57-12.76l-25.82,8.62v16.97c0,3.54-2.89,6.43-6.45,6.43h-13.63c-3.56,0-6.45-2.89-6.45-6.43
		v-16.97l-25.84-8.62l-9.55,12.76c-2.09,2.79-6.1,3.39-8.95,1.32l-11.21-8.2c-1.4-1.02-2.32-2.52-2.57-4.24
		c-0.25-1.72,0.18-3.41,1.22-4.81l9.47-12.63l-15.7-20.93l-14.98,3.94c-3.21,0.85-6.5-0.87-7.65-3.96c-0.07-0.12-0.1-0.25-0.15-0.4
		l-3.91-13.06c-0.42-1.35-0.37-2.74,0.07-3.99c0.62-1.82,2.07-3.31,4.06-3.96l14.16-4.71v-13.73c0-0.1-0.02-0.17-0.02-0.25
		c0-0.1,0.02-0.17,0.02-0.27v-13.71l-14.18-4.74c-3.31-1.12-5.13-4.61-4.11-7.95l3.91-13.03c1-3.36,4.44-5.28,7.8-4.39l14.98,3.94
		l15.7-20.93l-9.47-12.63c-1.05-1.4-1.47-3.09-1.22-4.81c0.25-1.72,1.17-3.21,2.57-4.24l11.21-8.2c2.84-2.07,6.83-1.47,8.95,1.32
		l8.92,11.91l0.62,0.85l16.82-5.61l9.02-3.02V79.19c0-3.54,2.89-6.43,6.45-6.43h13.63c3.56,0,6.45,2.89,6.45,6.43v16.97l25.82,8.62
		l9.57-12.76c2.09-2.79,6.11-3.39,8.95-1.32l11.21,8.2c1.4,1.02,2.32,2.52,2.57,4.24s-0.17,3.41-1.22,4.81l-9.47,12.63l15.7,20.93
		l14.98-3.94c3.39-0.9,6.8,1.05,7.8,4.36l3.91,13.06c1.02,3.34-0.8,6.83-4.14,7.95l-14.15,4.74v13.71c0,0.1,0.02,0.17,0.02,0.27
		c0,0.07-0.02,0.15-0.02,0.25v13.73l14.15,4.71C324.67,201.45,326.49,204.97,325.47,208.31z"/>
	<path class="st1" d="M194.01,88.96l-6.45,2.14l-4.54-6.06c-3.84-5.11-9.94-7.63-15.92-7.15c5.16,8.65,10.34,17.35,15.55,26.04
		l0.62,0.85l16.82-5.61C198.07,95.76,196.03,92.37,194.01,88.96z M192.74,204.27h-12.86c2.67,6.48,6.48,12.39,11.19,17.44
		c5.98-0.02,11.99-0.02,17.94-0.05C202.21,217.35,196.57,211.37,192.74,204.27z M123.21,221.37l-3.91-13.06
		c-0.42-1.35-0.37-2.74,0.07-3.99h-11.86c-0.3,2.39-0.1,4.86,0.65,7.33l3.04,10.12h12.16C123.28,221.64,123.26,221.52,123.21,221.37
		z M245.67,175.24c-1.1-1.57-2.12-3.07-2.97-4.49c-1.35-2.24-2.67-4.51-4.04-6.78c-2.27-0.92-4.76-1.45-7.38-1.45
		c-4.31,0-8.27,1.4-11.51,3.76c2.67,4.46,5.31,8.92,7.95,13.36c1.12,1.92,2.34,3.71,3.54,5.46c5.51,8,6.63,10.79,4.11,15.13
		c-0.18,0.32-0.37,0.6-0.55,0.87c8.65-1.59,15.28-8.9,15.85-17.84C249.11,180.25,247.27,177.55,245.67,175.24z M216.19,126.17
		c-5.66,1.79-10.92,4.46-15.68,7.78c1.99,3.34,3.99,6.68,5.98,10.04c4.68-3.44,10.07-6.01,15.85-7.5
		C220.3,133.05,218.23,129.61,216.19,126.17z"/>
	<g>
		<path class="st1" d="M387.78,353.97c-11.85,0-23.64-1.07-35.25-3.21c-5-0.92-9-2.29-12.58-4.31l-1.7-0.96l-6.71-9.42l-0.39-1.71
			c-1.56-6.89-0.37-13.13,0.68-18.63l0.4-2.14c4.43-24.43,12.22-44.7,23.82-61.97c19.64-29.24,48.97-45.48,87.18-48.26
			c16.07-1.16,32.44-0.04,50.06,3.43c3.89,0.77,7.54,2.14,10.84,4.07l1.62,0.94l7.05,9.89l0.19,2.4c1.23,15.26-3.01,29.02-7.1,42.32
			l-0.09,0.27c-7.22,23.46-17.51,41.65-31.47,55.59c-17.97,17.95-41.04,28.33-68.56,30.85C399.79,353.7,393.78,353.97,387.78,353.97
			z M350.07,332.02c1.55,0.66,3.38,1.18,5.63,1.59c15.91,2.93,32.23,3.66,48.51,2.17c23.68-2.17,42.6-10.62,57.82-25.82
			c12.06-12.04,20.68-27.41,27.13-48.37l0.08-0.27c3.53-11.48,6.88-22.36,6.52-33.48l-1.89-2.66c-1.21-0.55-2.51-0.96-3.93-1.24
			c-16.07-3.17-30.93-4.21-45.42-3.15c-33.04,2.4-57.24,15.68-73.96,40.58c-10.23,15.23-17.14,33.34-21.14,55.36l-0.43,2.3
			c-0.71,3.74-1.34,7.04-1.05,10L350.07,332.02z"/>
		<path class="st1" d="M421.86,325.15c-14.6,0-28.92-6.69-37.94-19.24v0c-15.02-20.92-10.19-50.23,10.78-65.34
			c10-7.21,22.35-10.07,34.77-8.01c12.49,2.05,23.35,8.76,30.6,18.9c7.08,9.91,9.94,22.66,7.85,34.98
			c-2.11,12.39-8.75,23.06-18.71,30.07C440.89,322.34,431.32,325.15,421.86,325.15z M398.09,295.73
			c9.47,13.19,27.52,16.04,41.08,6.5c6.12-4.31,10.22-10.95,11.55-18.72c1.32-7.77-0.44-15.75-4.84-21.91
			c-4.52-6.33-11.36-10.53-19.23-11.83c-7.8-1.29-15.52,0.47-21.74,4.96C391.73,264.21,388.67,282.61,398.09,295.73L398.09,295.73z"
			/>
	</g>
	<g>
		<path class="st1" d="M638.75,555.76c-4.58,0-8.86-2.07-13.08-6.32c-37.96-38.22-77.07-77.32-119.55-119.52
			c-1.56-1.55-6.29-6.25-6.24-12.92c0.05-6.68,4.88-11.35,6.47-12.89c8.13-7.86,16.28-16.04,24.16-23.95
			c4.85-4.86,9.69-9.72,14.57-14.55c1.71-1.69,3.56-2.95,5.18-4.06c0.63-0.43,1.28-0.87,1.94-1.36l0,0
			c3.15-2.33,7.47-2.26,10.56,0.16l0,0c0.77,0.6,1.52,1.16,2.26,1.7c1.82,1.34,3.7,2.73,5.5,4.52
			c13.98,13.96,27.95,27.92,41.91,41.89c25.16,25.17,51.19,51.2,76.86,76.71c1.65,1.64,6.69,6.64,6.63,13.6
			c-0.06,6.91-5.03,11.7-6.67,13.28c-11.64,11.2-23.65,23.21-36.71,36.7c-2.89,2.99-7.45,6.96-13.68,7
			C638.82,555.76,638.78,555.76,638.75,555.76z M518.01,417.13c0.12,0.13,0.26,0.27,0.41,0.42
			c42.51,42.23,81.64,81.35,119.64,119.61c0.27,0.27,0.5,0.49,0.7,0.66c0.32-0.28,0.73-0.66,1.24-1.19
			c13.21-13.65,25.36-25.8,37.15-37.14c0.35-0.34,0.63-0.63,0.83-0.86c-0.24-0.28-0.56-0.64-1-1.07
			c-25.69-25.53-51.72-51.57-76.9-76.75c-13.96-13.96-27.92-27.93-41.9-41.88c-0.27-0.27-0.58-0.55-0.92-0.83
			c-4.82,4.77-9.61,9.58-14.41,14.39c-7.94,7.96-16.14,16.2-24.39,24.18C518.29,416.83,518.14,416.98,518.01,417.13z"/>
	</g>
	<path class="st1" d="M420.59,137.13c-25.67,0-49.72,6.9-70.45,18.94l3.91,13.03c0.45,1.5,0.7,3.04,0.75,4.54
		c19.06-12.09,41.62-19.06,65.79-19.06c68.01,0,123.36,55.35,123.36,123.36S488.6,401.3,420.59,401.3
		c-59.81,0-109.83-42.81-121.02-99.39c-6.28,2.17-13.43,0.72-18.34-3.91c9.74,68.16,68.53,120.74,139.36,120.74
		c77.63,0,140.81-63.18,140.81-140.81C561.4,200.31,498.22,137.13,420.59,137.13z"/>
</g>
</svg>
