<?xml version="1.0" encoding="utf-8"?>
<!-- Generator: Adobe Illustrator 24.0.0, SVG Export Plug-In . SVG Version: 6.00 Build 0)  -->
<svg version="1.1" id="Capa_1" xmlns="http://www.w3.org/2000/svg" xmlns:xlink="http://www.w3.org/1999/xlink" x="0px" y="0px"
	 viewBox="0 0 800 600" style="enable-background:new 0 0 800 600;" xml:space="preserve">
<style type="text/css">
	.st0{fill:#F2F2F2;}
	.st1{fill:#A6192E;}
	.st2{fill:none;stroke:#A6192E;stroke-miterlimit:10;}
	.st3{fill:#323031;}
	.st4{fill:none;stroke:#AAAAAA;stroke-width:0.25;stroke-miterlimit:10;}
	.st5{fill:#FFFFFF;}
	.st6{fill:none;stroke:#FFFFFF;stroke-miterlimit:10;}
	.st7{fill:#F8F8F8;}
	.st8{fill:none;stroke:#898989;stroke-width:0.75;stroke-miterlimit:10;}
	.st9{fill:#898989;}
	.st10{fill:#E52A21;}
	.st11{fill:#D4A6B8;}
	.st12{fill:#FEFEFE;}
	.st13{fill:#BB0013;}
	.st14{fill:#FFBB00;}
	.st15{fill:#43499B;}
	.st16{fill:none;stroke:#A6192E;stroke-width:4;stroke-linecap:round;stroke-miterlimit:10;}
	.st17{fill:#051C2C;}
	.st18{fill:#4C4C4C;}
	.st19{fill:url(#SVGID_1_);}
	.st20{fill:url(#SVGID_2_);}
	.st21{fill:url(#SVGID_3_);}
	.st22{fill:url(#SVGID_4_);}
	.st23{fill:url(#SVGID_5_);}
	.st24{fill:url(#SVGID_6_);}
	.st25{fill:#0C3B4F;}
	.st26{fill:#2391C1;}
	.st27{fill:#0E4868;}
	.st28{fill:#EAF7F9;}
	.st29{fill:#002822;}
	.st30{fill:#45391D;}
	.st31{fill:#FD9C28;}
	.st32{fill:#E65924;}
	.st33{fill:#D8A982;}
	.st34{fill:#F5C99D;}
	.st35{fill:#97F9E3;}
	.st36{fill:#66AA98;}
	.st37{fill:#070707;}
	.st38{fill:#847D3D;}
	.st39{fill:#2F2C2E;}
	.st40{fill:#861418;}
	.st41{fill:#BDC5C2;}
	.st42{fill:none;stroke:#A6192E;stroke-width:6;stroke-linecap:round;stroke-miterlimit:10;}
	.st43{fill:#A3E1E4;}
	.st44{fill:#F7EA60;}
	.st45{fill:#545759;}
	.st46{fill:#39C5DA;}
	.st47{fill:#A76419;}
	.st48{fill:#4C0C18;}
	.st49{fill:url(#SVGID_7_);}
	.st50{fill:#BDD0FB;}
	.st51{fill:url(#SVGID_8_);}
	.st52{fill:#91B3FA;}
	.st53{fill:url(#SVGID_9_);}
	.st54{fill:url(#SVGID_10_);}
	.st55{fill:#7D97F4;}
	.st56{opacity:0.53;fill:#FFFFFF;}
	.st57{fill:url(#SVGID_11_);}
	.st58{fill:url(#SVGID_12_);}
	.st59{fill:url(#SVGID_13_);}
	.st60{fill:url(#SVGID_14_);}
	.st61{fill:url(#SVGID_15_);}
	.st62{fill:url(#SVGID_16_);}
	.st63{fill:url(#SVGID_17_);}
	.st64{fill:url(#SVGID_18_);}
	.st65{fill:url(#SVGID_19_);}
	.st66{fill:url(#SVGID_20_);}
	.st67{fill:url(#SVGID_21_);}
	.st68{fill:url(#SVGID_22_);}
	.st69{fill:url(#SVGID_23_);}
	.st70{fill:url(#SVGID_24_);}
	.st71{fill:url(#SVGID_25_);}
	.st72{opacity:0.3;}
	.st73{fill:url(#SVGID_26_);}
	.st74{fill:url(#SVGID_27_);}
	.st75{fill:url(#SVGID_28_);}
	.st76{fill:url(#SVGID_29_);}
	.st77{fill:url(#SVGID_30_);}
	.st78{fill:url(#SVGID_31_);}
	.st79{opacity:0.7;fill:#FFFFFF;}
	.st80{fill:url(#SVGID_32_);}
	.st81{fill:url(#SVGID_33_);}
	.st82{fill:url(#SVGID_34_);}
	.st83{fill:url(#SVGID_35_);}
	.st84{fill:url(#SVGID_36_);}
	.st85{fill:url(#SVGID_37_);}
	.st86{fill:url(#SVGID_38_);}
	.st87{fill:url(#SVGID_39_);}
	.st88{fill:url(#SVGID_40_);}
	.st89{fill:url(#SVGID_41_);}
	.st90{fill:url(#SVGID_42_);}
	.st91{fill:url(#SVGID_43_);}
	.st92{fill:url(#SVGID_44_);}
	.st93{fill:url(#SVGID_45_);}
	.st94{fill:url(#SVGID_46_);}
	.st95{fill:url(#SVGID_47_);}
	.st96{fill:url(#SVGID_48_);}
	.st97{fill:url(#SVGID_49_);}
	.st98{fill:url(#SVGID_50_);}
	.st99{fill:url(#SVGID_51_);}
	.st100{fill:url(#SVGID_52_);}
	.st101{fill:url(#SVGID_53_);}
	.st102{fill:url(#SVGID_54_);}
	.st103{fill:url(#SVGID_55_);}
	.st104{fill:url(#SVGID_56_);}
	.st105{fill:#CD001A;}
	.st106{fill:#101820;}
	.st107{fill:none;stroke:#FFFFFF;stroke-width:2;stroke-miterlimit:10;}
	.st108{fill:#FFFFFF;stroke:#A6192E;stroke-width:4;stroke-miterlimit:10;}
	.st109{fill:#25D366;}
	.st110{fill:none;stroke:#A6192E;stroke-width:4;stroke-miterlimit:10;}
	.st111{fill:none;stroke:#A6192E;stroke-width:3;stroke-linecap:round;stroke-miterlimit:10;}
	.st112{fill:none;}
</style>
<g>
	<path class="st1" d="M587.61,483.76c0,3.76-3.06,6.81-6.78,6.81c-19.85,0-37.76-8.5-50.24-22.04c-5.5-5.91-9.96-12.81-13.07-20.38
		c-3.32-8.03-5.15-16.83-5.15-26.05c0-23.17,11.56-43.69,29.26-56.1c5.56-3.87,11.7-6.99,18.31-9.08c6.58-2.15,13.62-3.29,20.9-3.29
		c3.73,0,6.78,3.06,6.78,6.81c0,3.75-3.06,6.78-6.78,6.78c-4.72,0-9.32,0.61-13.71,1.75c-6.75,1.75-13.04,4.74-18.52,8.76
		c-13.74,9.98-22.65,26.14-22.65,44.36c0,9.4,2.39,18.28,6.58,26.05c4.48,8.3,11.06,15.28,19.01,20.32h0.03
		c8.47,5.39,18.51,8.5,29.26,8.5C584.55,476.98,587.61,480.03,587.61,483.76z"/>
	<path class="st1" d="M600.27,422.1c0,0.49-0.03,1.02-0.06,1.51c-0.67,10.45-8.41,18.98-18.51,20.84c-1.34,0.26-2.71,0.38-4.13,0.38
		c-12.55,0-22.71-10.19-22.71-22.74c0-7.51,3.64-14.18,9.26-18.31c3.78-2.77,8.41-4.4,13.45-4.4c3.06,0,5.97,0.61,8.62,1.69
		C594.45,404.46,600.27,412.61,600.27,422.1z"/>
	<path class="st1" d="M687.05,430.69l-7.25-2.42v-6.23c0-0.12-0.03-0.2-0.03-0.29c0-0.12,0.03-0.2,0.03-0.32v-6.23l7.25-2.42
		c10.89-3.64,16.85-15.11,13.54-26.08l-4.57-15.25c-3.29-10.95-14.5-17.23-25.59-14.35l-8.65,2.3l-6.75-8.99l4.98-6.61
		c3.41-4.54,4.83-10.16,3.99-15.78c-0.84-5.62-3.84-10.57-8.44-13.91l-13.1-9.58c-9.26-6.78-22.44-4.83-29.31,4.37l-5.3,7.07
		l-11.61-3.87v-10.04c0-11.64-9.46-21.1-21.1-21.1H559.2c-11.64,0-21.1,9.46-21.1,21.1v10.04l-4.08,1.37l-7.54,2.5l-5.3-7.07
		c-4.48-5.97-11.61-8.91-18.6-8.35c-3.76,0.29-7.51,1.6-10.74,3.99l-13.1,9.58c-4.57,3.35-7.57,8.3-8.41,13.91
		c-0.84,5.62,0.58,11.24,3.99,15.78l4.98,6.61l-6.75,8.99l-8.64-2.27c-11.09-2.94-22.3,3.38-25.59,14.32l-4.57,15.25
		c-3.32,10.97,2.65,22.44,13.54,26.08l7.25,2.42v6.23c0,0.12,0.03,0.2,0.03,0.32c0,0.09-0.03,0.17-0.03,0.29v6.23l-7.25,2.42
		c-8.04,2.71-13.39,9.64-14.29,17.52c-0.35,2.79-0.12,5.68,0.76,8.56l3.55,11.82l1.02,3.44c3.29,10.95,14.53,17.23,25.59,14.35
		l8.64-2.3l6.75,8.99l-4.98,6.61c-3.41,4.54-4.83,10.16-3.99,15.78c0.84,5.62,3.84,10.57,8.41,13.91l13.1,9.58
		c9.29,6.78,22.44,4.83,29.34-4.37l5.3-7.07l11.61,3.87v10.04c0,11.64,9.46,21.1,21.1,21.1h15.92c11.64,0,21.1-9.46,21.1-21.1
		v-10.04l11.61-3.87l5.3,7.07c6.9,9.2,20.06,11.15,29.31,4.37l13.13-9.58c4.57-3.35,7.57-8.3,8.41-13.91
		c0.84-5.62-0.58-11.24-3.99-15.78l-4.98-6.61l6.75-8.99l8.65,2.3c11.06,2.88,22.3-3.41,25.59-14.35l4.57-15.25
		C703.9,445.77,697.94,434.33,687.05,430.69z M687.57,452.87L683,468.13c-1.16,3.9-5.15,6.14-9.11,5.09l-17.49-4.6l-18.34,24.45
		l11.06,14.76c1.22,1.63,1.72,3.61,1.43,5.62c-0.29,2.01-1.37,3.75-3,4.95l-13.1,9.58c-3.29,2.42-8.01,1.72-10.45-1.54l-11.18-14.9
		l-30.16,10.07v19.82c0,4.13-3.38,7.51-7.54,7.51H559.2c-4.16,0-7.54-3.38-7.54-7.51V521.6l-30.19-10.07l-11.15,14.9
		c-2.44,3.26-7.13,3.96-10.45,1.54l-13.1-9.58c-1.63-1.19-2.71-2.94-3-4.95c-0.29-2.01,0.2-3.99,1.43-5.62l11.06-14.76l-18.34-24.45
		l-17.5,4.6c-3.76,0.99-7.6-1.02-8.94-4.63c-0.09-0.15-0.12-0.29-0.17-0.47l-4.57-15.25c-0.49-1.57-0.44-3.2,0.09-4.66
		c0.73-2.13,2.42-3.87,4.74-4.63l16.54-5.5v-16.04c0-0.12-0.03-0.2-0.03-0.29c0-0.12,0.03-0.2,0.03-0.32v-16.01l-16.56-5.53
		c-3.87-1.31-6-5.39-4.8-9.29l4.57-15.22c1.16-3.93,5.18-6.17,9.11-5.12l17.5,4.6l18.34-24.45l-11.06-14.76
		c-1.22-1.63-1.72-3.61-1.43-5.62c0.29-2.01,1.37-3.75,3-4.95l13.1-9.58c3.32-2.42,7.98-1.72,10.45,1.54l10.42,13.91l0.73,0.99
		l19.65-6.55l10.54-3.52v-19.82c0-4.13,3.38-7.51,7.54-7.51h15.92c4.16,0,7.54,3.38,7.54,7.51v19.82l30.16,10.07l11.18-14.9
		c2.44-3.26,7.13-3.96,10.45-1.54l13.1,9.58c1.63,1.19,2.71,2.94,3,4.95s-0.2,3.99-1.43,5.62l-11.06,14.76l18.34,24.45l17.49-4.6
		c3.96-1.05,7.95,1.22,9.11,5.09l4.57,15.25c1.19,3.9-0.93,7.98-4.83,9.29l-16.53,5.53v16.01c0,0.12,0.03,0.2,0.03,0.32
		c0,0.09-0.03,0.17-0.03,0.29v16.04l16.53,5.5C686.64,444.87,688.77,448.97,687.57,452.87z"/>
	<path class="st1" d="M687.05,430.69l-7.25-2.42v-6.23c0-0.12-0.03-0.2-0.03-0.29c0-0.12,0.03-0.2,0.03-0.32v-6.23l7.25-2.42
		c10.89-3.64,16.85-15.11,13.54-26.08l-4.57-15.25c-3.29-10.95-14.5-17.23-25.59-14.35l-8.65,2.3l-6.75-8.99l4.98-6.61
		c3.41-4.54,4.83-10.16,3.99-15.78c-0.84-5.62-3.84-10.57-8.44-13.91l-13.1-9.58c-9.26-6.78-22.44-4.83-29.31,4.37l-5.3,7.07
		l-11.61-3.87v-10.04c0-11.64-9.46-21.1-21.1-21.1H559.2c-11.64,0-21.1,9.46-21.1,21.1v10.04l-4.08,1.37l-7.54,2.5l-5.3-7.07
		c-4.48-5.97-11.61-8.91-18.6-8.35c-3.76,0.29-7.51,1.6-10.74,3.99l-13.1,9.58c-4.57,3.35-7.57,8.3-8.41,13.91
		c-0.84,5.62,0.58,11.24,3.99,15.78l4.98,6.61l-6.75,8.99l-8.64-2.27c-11.09-2.94-22.3,3.38-25.59,14.32l-4.57,15.25
		c-3.32,10.97,2.65,22.44,13.54,26.08l7.25,2.42v6.23c0,0.12,0.03,0.2,0.03,0.32c0,0.09-0.03,0.17-0.03,0.29v6.23l-7.25,2.42
		c-8.04,2.71-13.39,9.64-14.29,17.52c-0.35,2.79-0.12,5.68,0.76,8.56l3.55,11.82l1.02,3.44c3.29,10.95,14.53,17.23,25.59,14.35
		l8.64-2.3l6.75,8.99l-4.98,6.61c-3.41,4.54-4.83,10.16-3.99,15.78c0.84,5.62,3.84,10.57,8.41,13.91l13.1,9.58
		c9.29,6.78,22.44,4.83,29.34-4.37l5.3-7.07l11.61,3.87v10.04c0,11.64,9.46,21.1,21.1,21.1h15.92c11.64,0,21.1-9.46,21.1-21.1
		v-10.04l11.61-3.87l5.3,7.07c6.9,9.2,20.06,11.15,29.31,4.37l13.13-9.58c4.57-3.35,7.57-8.3,8.41-13.91
		c0.84-5.62-0.58-11.24-3.99-15.78l-4.98-6.61l6.75-8.99l8.65,2.3c11.06,2.88,22.3-3.41,25.59-14.35l4.57-15.25
		C703.9,445.77,697.94,434.33,687.05,430.69z M687.57,452.87L683,468.13c-1.16,3.9-5.15,6.14-9.11,5.09l-17.49-4.6l-18.34,24.45
		l11.06,14.76c1.22,1.63,1.72,3.61,1.43,5.62c-0.29,2.01-1.37,3.75-3,4.95l-13.1,9.58c-3.29,2.42-8.01,1.72-10.45-1.54l-11.18-14.9
		l-30.16,10.07v19.82c0,4.13-3.38,7.51-7.54,7.51H559.2c-4.16,0-7.54-3.38-7.54-7.51V521.6l-30.19-10.07l-11.15,14.9
		c-2.44,3.26-7.13,3.96-10.45,1.54l-13.1-9.58c-1.63-1.19-2.71-2.94-3-4.95c-0.29-2.01,0.2-3.99,1.43-5.62l11.06-14.76l-18.34-24.45
		l-17.5,4.6c-3.76,0.99-7.6-1.02-8.94-4.63c-0.09-0.15-0.12-0.29-0.17-0.47l-4.57-15.25c-0.49-1.57-0.44-3.2,0.09-4.66
		c0.73-2.13,2.42-3.87,4.74-4.63l16.54-5.5v-16.04c0-0.12-0.03-0.2-0.03-0.29c0-0.12,0.03-0.2,0.03-0.32v-16.01l-16.56-5.53
		c-3.87-1.31-6-5.39-4.8-9.29l4.57-15.22c1.16-3.93,5.18-6.17,9.11-5.12l17.5,4.6l18.34-24.45l-11.06-14.76
		c-1.22-1.63-1.72-3.61-1.43-5.62c0.29-2.01,1.37-3.75,3-4.95l13.1-9.58c3.32-2.42,7.98-1.72,10.45,1.54l10.42,13.91l0.73,0.99
		l19.65-6.55l10.54-3.52v-19.82c0-4.13,3.38-7.51,7.54-7.51h15.92c4.16,0,7.54,3.38,7.54,7.51v19.82l30.16,10.07l11.18-14.9
		c2.44-3.26,7.13-3.96,10.45-1.54l13.1,9.58c1.63,1.19,2.71,2.94,3,4.95s-0.2,3.99-1.43,5.62l-11.06,14.76l18.34,24.45l17.49-4.6
		c3.96-1.05,7.95,1.22,9.11,5.09l4.57,15.25c1.19,3.9-0.93,7.98-4.83,9.29l-16.53,5.53v16.01c0,0.12,0.03,0.2,0.03,0.32
		c0,0.09-0.03,0.17-0.03,0.29v16.04l16.53,5.5C686.64,444.87,688.77,448.97,687.57,452.87z"/>
	<path class="st1" d="M469.01,204.77l-37.7-63.02c-5.21-8.73-10.36-17.47-15.54-26.2c-11.7-19.74-23.81-40.14-36.13-60
		c-7.07-11.44-16.88-17.87-27.6-18.08h-0.55c-10.71,0-20.76,6.17-28.38,17.44c-2.44,3.61-4.63,7.28-6.75,10.83l-50.39,84.13
		c-52.83,88.23-105.7,176.5-158.65,264.67c-5.09,8.5-13.62,22.71-5.39,38.48c8.12,15.54,23.52,15.43,33.71,15.37h205.98v0.17
		l62.59,0.03h11.76l-1.78-5.94c-1.46-4.83-1.98-9.69-1.69-14.44h-8.3L362,448.19v-0.17H135.5c-10.22,0.06-13.45-0.5-15.49-4.4
		c-2.53-4.89-0.67-9.49,4.8-18.57c52.95-88.2,105.79-176.47,158.65-264.7l50.36-84.13c2.1-3.46,4.05-6.75,6.17-9.9
		c3.7-5.44,7.92-8.67,11.64-8.47c3.52,0.06,7.42,3.14,10.68,8.41c12.23,19.71,24.25,40.03,35.89,59.68
		c5.21,8.76,10.39,17.52,15.63,26.26l37.7,63.02c13.19,22.07,26.55,44.39,40,66.87c4.05-1.31,8.33-1.98,12.69-1.98
		c3.67,0,7.25,0.49,10.71,1.4C499.49,255.71,484.15,230.09,469.01,204.77z M534.02,313.46l-7.54,2.5l-5.3-7.07
		c-4.48-5.97-11.61-8.91-18.6-8.35c6.03,10.1,12.08,20.26,18.16,30.42l0.73,0.99l19.65-6.55
		C538.76,321.41,536.37,317.45,534.02,313.46z M532.53,448.16h-15.02c3.11,7.57,7.57,14.47,13.07,20.38
		c6.99-0.03,14-0.03,20.96-0.06C543.59,463.44,537.01,456.45,532.53,448.16z M451.31,468.13l-4.57-15.25
		c-0.49-1.57-0.44-3.2,0.09-4.66h-13.86c-0.35,2.79-0.12,5.68,0.76,8.56l3.55,11.82h14.21C451.4,468.45,451.37,468.3,451.31,468.13z
		 M594.36,414.24c-1.28-1.83-2.47-3.58-3.46-5.24c-1.57-2.62-3.12-5.27-4.72-7.92c-2.65-1.08-5.56-1.69-8.62-1.69
		c-5.04,0-9.67,1.63-13.45,4.4c3.12,5.21,6.2,10.42,9.29,15.6c1.31,2.24,2.74,4.34,4.13,6.37c6.43,9.34,7.74,12.6,4.8,17.67
		c-0.2,0.38-0.44,0.7-0.64,1.02c10.1-1.86,17.84-10.39,18.51-20.84C598.38,420.09,596.22,416.95,594.36,414.24z M559.92,356.92
		c-6.61,2.1-12.75,5.21-18.31,9.08c2.33,3.9,4.66,7.8,6.99,11.73c5.47-4.02,11.76-7.02,18.52-8.76
		C564.73,364.96,562.31,360.94,559.92,356.92z"/>
	<path class="st1" d="M379.22,251.84L379.22,251.84c-4.67,0-8.45,3.79-8.44,8.45l0.05,30.15c-0.44,10.48-5.59,17.35-14.85,19.91
		c-7.74,2.12-15.69-0.81-20.73-7.71c-2.47-3.35-3.55-7.39-3.52-13.1c0.06-12.26,0.06-24.51,0.06-36.79l-0.03-13.83
		c0-5.01,0-10.04-0.03-15.05c-0.03-11.62-0.09-23.64,0.06-35.43c0.15-13.59,7.1-21.66,19.1-22.12h0.79
		c10.33,0,18.31,8.41,19.01,20.29l0.02,21.87c0,4.66,3.78,8.43,8.44,8.43h0c4.67,0,8.45-3.78,8.44-8.45l-0.02-22.9
		c-1.34-21.37-17.26-36.91-37.35-36.13c-21.22,0.84-35.08,16.07-35.31,38.8c-0.15,11.91-0.09,23.99-0.09,35.66
		c0.03,5.01,0.03,10.01,0.03,15.02l0.03,13.86c0,12.23,0.03,24.42-0.06,36.65c-0.03,9.32,2.18,16.91,6.78,23.23
		c5.56,7.57,13.39,12.6,21.92,14.44c2.44,0.58,4.95,0.84,7.51,0.84c2.5,0,4.98-0.26,7.48-0.82c0.64-0.15,1.28-0.29,1.92-0.47
		c16.3-4.48,26.52-17.76,27.28-35.46l-0.05-30.93C387.65,255.61,383.88,251.84,379.22,251.84z"/>
	<path class="st1" d="M377.38,359.73c-5.09-5.29-11.73-8.86-18.88-10.33c-2.44-0.51-4.95-0.77-7.46-0.77h-0.17
		c-2.54,0.02-5,0.27-7.36,0.75c-16.49,3.38-28.56,17.57-28.63,35.03v0.1c0,20.57,14.92,35.61,35.56,35.83h0.41
		c20.16,0,35.85-14.85,36.55-34.69C387.76,375.95,384.19,366.75,377.38,359.73z M350.85,403.42h-0.24
		c-11.3-0.12-18.85-7.73-18.83-18.95c0.05-10.74,8.28-18.9,19.17-18.95h0.1c5.43,0,10.48,2.12,14.22,5.96
		c3.57,3.69,5.43,8.5,5.26,13.54C370.14,395.72,361.88,403.42,350.85,403.42z"/>
	<line class="st112" x1="370.77" y1="251.84" x2="370.71" y2="216.9"/>
</g>
</svg>
